<?xml version="1.0" encoding="UTF-8"?>
<svg version="1.1" xmlns="http://www.w3.org/2000/svg" width="317" height="279">
<path d="M0 0 C14.21884915 11.69678207 22.46012827 26.01179252 25.05834961 44.25976562 C26.61035887 62.16102313 21.14410102 79.25079376 10.05834961 93.25976562 C9.4125293 94.09378906 8.76670898 94.9278125 8.10131836 95.78710938 C-3.57073491 109.84121433 -20.06039402 117.01820524 -37.94165039 119.25976562 C-42.56021008 119.51528652 -47.16367158 119.51388381 -51.78833008 119.48681641 C-53.12998445 119.48625067 -54.47163944 119.48657201 -55.81329346 119.48770142 C-59.41582957 119.4882696 -63.01822945 119.4766031 -66.62073421 119.4625535 C-70.4003268 119.44995586 -74.17992334 119.44886858 -77.95953369 119.44650269 C-85.09902282 119.44031424 -92.23844987 119.42393952 -99.37791181 119.40380371 C-107.5134558 119.38136213 -115.64900292 119.37043061 -123.78457022 119.36041284 C-140.50363313 119.33957062 -157.22263381 119.30444653 -173.94165039 119.25976562 C-172.41980599 116.21607682 -170.10131288 116.10687065 -166.94165039 115.00976562 C-148.86997251 108.13937828 -140.06610482 93.46785623 -130.94165039 77.25976562 C-130.42731445 76.34759277 -129.91297852 75.43541992 -129.38305664 74.49560547 C-124.67692343 66.13352409 -119.99994016 57.75502847 -115.33374023 49.37060547 C-105.76521162 32.21292929 -96.16783998 15.03054366 -81.94165039 1.25976562 C-80.88977539 0.23302734 -80.88977539 0.23302734 -79.81665039 -0.81445312 C-58.37315485 -19.53689904 -21.23344675 -16.76211056 0 0 Z " fill="#20A39D" transform="translate(287.941650390625,13.740234375)"/>
<path d="M0 0 C1.40017692 0.00056495 2.80035443 0.00024592 4.20053101 -0.00088501 C7.98098105 -0.00145625 11.76130287 0.01026085 15.54172325 0.02426291 C19.50018022 0.03680853 23.45864048 0.03794378 27.41711426 0.04031372 C34.90381151 0.04651726 42.39045001 0.06291277 49.87712145 0.0830127 C58.40434322 0.10540683 66.93156788 0.11637395 75.45881176 0.12640357 C92.99145531 0.14728005 110.52404174 0.18243404 128.05664062 0.22705078 C125.14154002 2.17045118 122.4917144 3.31936126 119.24414062 4.60205078 C96.0796594 14.24003038 85.28657806 41.29656298 73.81787109 62.04296875 C63.89976349 79.97365345 53.95823657 97.25569075 41.05664062 113.22705078 C40.51910156 113.91798828 39.9815625 114.60892578 39.42773438 115.32080078 C29.43530708 126.80035173 11.4190725 131.30716021 -3.09570312 132.38720703 C-21.01728635 133.07305797 -36.78690497 126.76784348 -50.18945312 114.95361328 C-62.10281867 103.15853647 -70.09400543 88.236013 -70.27319336 71.31103516 C-70.15740863 52.38104744 -65.80554818 36.62377404 -52.94335938 22.22705078 C-52.33878906 21.54126953 -51.73421875 20.85548828 -51.11132812 20.14892578 C-37.38069685 5.49546186 -19.53088054 -0.1081087 0 0 Z " fill="#20A29D" transform="translate(73.943359375,145.77294921875)"/>
<path d="M0 0 C0.8559375 0.2784375 1.711875 0.556875 2.59375 0.84375 C19.11034602 6.75709919 31.56063846 19.77099135 39.25 35.1875 C47.14681539 53.15592219 46.76119309 72.0176066 39.8125 90.1875 C33.05742005 105.35114216 20.48848038 118.55825344 4.98242188 124.81396484 C-13.72413317 131.61277582 -32.84929303 131.77620273 -51.18359375 123.51953125 C-56.16436455 120.83226378 -60.57127324 117.50396815 -65 114 C-66.051875 113.236875 -67.10375 112.47375 -68.1875 111.6875 C-79.81637925 100.57545982 -87.67953196 84.606161 -88.203125 68.4609375 C-88.5104064 48.87943047 -84.15623912 31.50700473 -70.27929688 17.03100586 C-51.75431884 -1.31291529 -24.98285256 -8.72894849 0 0 Z " fill="#20A29D" transform="translate(272,149)"/>
<path d="M0 0 C11.38048927 8.84127201 18.83058574 19.88619801 23.5390625 33.5546875 C23.77238281 34.2146875 24.00570312 34.8746875 24.24609375 35.5546875 C28.99965886 51.42270339 26.55544482 68.83513411 19.5390625 83.5546875 C9.74256295 101.54679521 -4.59470003 112.73542393 -24.11328125 118.6640625 C-41.5469158 122.84986599 -60.44140821 119.46924342 -75.74707031 110.61865234 C-90.26822909 101.60395007 -100.3226211 87.43215973 -105.3359375 71.1796875 C-109.51524738 52.32303936 -106.62679441 32.93016146 -96.4609375 16.5546875 C-86.60326474 2.48189402 -72.09536884 -8.2153198 -55.125 -11.9765625 C-35.20764097 -14.52462549 -16.49557939 -12.05554269 0 0 Z " fill="#20A29D" transform="translate(106.4609375,12.4453125)"/>
</svg>
